<?xml version="1.0" encoding="UTF-8" standalone="no"?>
<svg
   xmlns:dc="http://purl.org/dc/elements/1.1/"
   xmlns:cc="http://creativecommons.org/ns#"
   xmlns:rdf="http://www.w3.org/1999/02/22-rdf-syntax-ns#"
   xmlns:svg="http://www.w3.org/2000/svg"
   xmlns="http://www.w3.org/2000/svg"
   xmlns:sodipodi="http://sodipodi.sourceforge.net/DTD/sodipodi-0.dtd"
   xmlns:inkscape="http://www.inkscape.org/namespaces/inkscape"
   width="3em" 
   height="3em"
   viewBox="0 0 137.903 154.045"
   version="1.1"
   id="svg904"
   inkscape:version="1.0.1 (3bc2e813f5, 2020-09-07)"
   sodipodi:docname="logo.svg">
  <defs
     id="defs898" />
  <sodipodi:namedview
     id="base"
     pagecolor="#98AF4F"
     bordercolor="#98AF4F"
     borderopacity="1.0"
     inkscape:pageopacity="0.0"
     inkscape:pageshadow="2"
     inkscape:zoom="0.87816468"
     inkscape:cx="396.85039"
     inkscape:cy="246.70274"
     inkscape:document-units="mm"
     inkscape:current-layer="layer1"
     inkscape:document-rotation="0"
     showgrid="false"
     inkscape:pagecheckerboard="false"
     inkscape:window-width="1465"
     inkscape:window-height="1040"
     inkscape:window-x="26"
     inkscape:window-y="0"
     inkscape:window-maximized="0" />
  <metadata
     id="metadata901">
    <rdf:RDF>
      <cc:Work
         rdf:about="">
        <dc:format>image/svg+xml</dc:format>
        <dc:type
           rdf:resource="http://purl.org/dc/dcmitype/StillImage" />
        <dc:title></dc:title>
      </cc:Work>
    </rdf:RDF>
  </metadata>
  <g
     inkscape:label="Warstwa 1"
     inkscape:groupmode="layer"
     id="layer1">
    <g
       id="g1474"
       transform="translate(-21.090387,-60.55954)"
       style="fill:#98AF4F">
      <path
         id="rect849-3-3-5"
         style="fill:#98AF4F;fill-opacity:1;stroke:none;stroke-width:1.1127;stroke-miterlimit:4;stroke-dasharray:none;stroke-dashoffset:0"
         d="m 89.49945,61.060611 a 30.994048,30.994048 0 0 0 -18.60455,6.23787 30.994048,30.994048 0 0 0 -18.39423,-6.04872 30.994048,30.994048 0 0 0 -30.993972,30.99398 30.994048,30.994048 0 0 0 18.90272,28.538299 v 93.32402 H 139.77648 V 120.55569 A 30.994048,30.994048 0 0 0 158.40997,92.13314 30.994048,30.994048 0 0 0 127.416,61.139171 a 30.994048,30.994048 0 0 0 -18.88619,6.41873 30.994048,30.994048 0 0 0 -18.987471,-6.49729 30.994048,30.994048 0 0 0 -0.0429,0 z m 8.565369,85.029439 h 5.3e-4 5.29e-4 c 9.003642,5.3e-4 16.302332,7.29964 16.302362,16.30341 h 0.007 c 0.44694,10.17624 -10.87505,20.34315 -25.317844,31.1831 -15.273179,-10.9275 -26.261589,-21.50954 -25.985999,-31.1831 h 0.0021 c 0.0283,-8.97999 7.315251,-16.25118 16.30185,-16.25121 3.32794,-1.3e-4 6.5762,1.01819 9.30847,2.91817 2.746389,-1.93265 6.0226,-2.97003 9.380829,-2.97037 z" />
    </g>
  </g>
</svg>
